mtllib material.mtl
usemtl material_0
v -0.01492440 -0.02405000 -0.08997020
v -0.01462180 -0.02405000 -0.09309300
v -0.01456760 -0.02405000 -0.08685320
v -0.01412450 -0.02405000 -0.08997720
v -0.01383810 -0.02405000 -0.09293260
v -0.01378670 -0.02405000 -0.08702720
v -0.01367310 -0.02405000 -0.09608350
v -0.01294020 -0.02405000 -0.09576280
v -0.01212020 -0.02405000 -0.09880960
v -0.01147050 -0.02405000 -0.09834270
v -0.01003170 -0.02405000 -0.10115080
v -0.00949400 -0.02405000 -0.10055850
v -0.00749990 -0.02405000 -0.10300370
v -0.00709790 -0.02405000 -0.10231210
v -0.00524630 -0.02405000 -0.04503070
v -0.00463680 -0.02405000 -0.10428650
v -0.00456210 -0.02405000 -0.04335780
v -0.00446540 -0.02405000 -0.04520470
v -0.00438820 -0.02405000 -0.10352600
v -0.00388310 -0.02405000 -0.04378080
v -0.00336200 -0.02405000 -0.04200620
v -0.00286160 -0.02405000 -0.04263040
v -0.00178170 -0.02405000 -0.04112890
v -0.00156870 -0.02405000 -0.10494230
v -0.00151650 -0.02405000 -0.04188370
v -0.00148460 -0.02405000 -0.10414680
v 0.00000000 -0.02405000 -0.04082500
v 0.00000000 -0.02405000 -0.04162500
v 0.00148460 -0.02405000 -0.10414680
v 0.00151650 -0.02405000 -0.04188370
v 0.00156870 -0.02405000 -0.10494230
v 0.00178170 -0.02405000 -0.04112890
v 0.00286160 -0.02405000 -0.04263040
v 0.00336200 -0.02405000 -0.04200620
v 0.00388310 -0.02405000 -0.04378080
v 0.00438820 -0.02405000 -0.10352600
v 0.00446540 -0.02405000 -0.04520470
v 0.00456210 -0.02405000 -0.04335780
v 0.00463680 -0.02405000 -0.10428650
v 0.00524630 -0.02405000 -0.04503070
v 0.00709790 -0.02405000 -0.10231210
v 0.00749990 -0.02405000 -0.10300370
v 0.00949400 -0.02405000 -0.10055850
v 0.01003170 -0.02405000 -0.10115080
v 0.01147050 -0.02405000 -0.09834270
v 0.01212020 -0.02405000 -0.09880960
v 0.01294020 -0.02405000 -0.09576280
v 0.01367310 -0.02405000 -0.09608350
v 0.01378670 -0.02405000 -0.08702720
v 0.01383810 -0.02405000 -0.09293260
v 0.01412450 -0.02405000 -0.08997720
v 0.01456760 -0.02405000 -0.08685320
v 0.01462180 -0.02405000 -0.09309300
v 0.01492440 -0.02405000 -0.08997020
v -0.01492440 -0.02005000 -0.08997020
v -0.01462180 -0.02005000 -0.09309300
v -0.01456760 -0.02005000 -0.08685320
v -0.01412450 -0.02005000 -0.08997720
v -0.01383810 -0.02005000 -0.09293260
v -0.01378670 -0.02005000 -0.08702720
v -0.01367310 -0.02005000 -0.09608350
v -0.01294020 -0.02005000 -0.09576280
v -0.01212020 -0.02005000 -0.09880960
v -0.01147050 -0.02005000 -0.09834270
v -0.01003170 -0.02005000 -0.10115080
v -0.00949400 -0.02005000 -0.10055850
v -0.00749990 -0.02005000 -0.10300370
v -0.00709790 -0.02005000 -0.10231210
v -0.00524630 -0.02005000 -0.04503070
v -0.00463680 -0.02005000 -0.10428650
v -0.00456210 -0.02005000 -0.04335780
v -0.00446540 -0.02005000 -0.04520470
v -0.00438820 -0.02005000 -0.10352600
v -0.00388310 -0.02005000 -0.04378080
v -0.00336200 -0.02005000 -0.04200620
v -0.00286160 -0.02005000 -0.04263040
v -0.00178170 -0.02005000 -0.04112890
v -0.00156870 -0.02005000 -0.10494230
v -0.00151650 -0.02005000 -0.04188370
v -0.00148460 -0.02005000 -0.10414680
v 0.00000000 -0.02005000 -0.04082500
v 0.00000000 -0.02005000 -0.04162500
v 0.00148460 -0.02005000 -0.10414680
v 0.00151650 -0.02005000 -0.04188370
v 0.00156870 -0.02005000 -0.10494230
v 0.00178170 -0.02005000 -0.04112890
v 0.00286160 -0.02005000 -0.04263040
v 0.00336200 -0.02005000 -0.04200620
v 0.00388310 -0.02005000 -0.04378080
v 0.00438820 -0.02005000 -0.10352600
v 0.00446540 -0.02005000 -0.04520470
v 0.00456210 -0.02005000 -0.04335780
v 0.00463680 -0.02005000 -0.10428650
v 0.00524630 -0.02005000 -0.04503070
v 0.00709790 -0.02005000 -0.10231210
v 0.00749990 -0.02005000 -0.10300370
v 0.00949400 -0.02005000 -0.10055850
v 0.01003170 -0.02005000 -0.10115080
v 0.01147050 -0.02005000 -0.09834270
v 0.01212020 -0.02005000 -0.09880960
v 0.01294020 -0.02005000 -0.09576280
v 0.01367310 -0.02005000 -0.09608350
v 0.01378670 -0.02005000 -0.08702720
v 0.01383810 -0.02005000 -0.09293260
v 0.01412450 -0.02005000 -0.08997720
v 0.01456760 -0.02005000 -0.08685320
v 0.01462180 -0.02005000 -0.09309300
v 0.01492440 -0.02005000 -0.08997020
vn -0.72926910 -0.68419770 0.00634070
vn -0.71448200 -0.68419770 -0.14624970
vn -0.70861850 -0.69545170 0.11919210
vn 0.68176510 -0.73154710 -0.00592770
vn 0.66794150 -0.73154710 0.13672320
vn 0.68523320 -0.71914600 -0.11525850
vn -0.66812340 -0.68419770 -0.29237780
vn 0.62460260 -0.73154710 0.27333250
vn -0.59224150 -0.68419780 -0.42558600
vn 0.55366370 -0.73154710 0.39786370
vn -0.49018990 -0.68419750 -0.53998860
vn 0.45825920 -0.73154720 0.50481410
vn -0.36647710 -0.68419750 -0.63053010
vn 0.34260540 -0.73154700 0.58945790
vn -0.69194140 -0.68860170 0.21689820
vn -0.22657070 -0.68419770 -0.69320940
vn -0.62920180 -0.67114870 0.39200090
vn 0.65560690 -0.72659880 -0.20550870
vn 0.21181240 -0.73154720 0.64805420
vn 0.56429060 -0.74698170 -0.35156010
vn -0.46368520 -0.67114880 0.57840760
vn 0.41584970 -0.74698190 -0.51873610
vn -0.24573710 -0.67114890 0.69940860
vn -0.07665260 -0.68419750 -0.72525730
vn 0.22038600 -0.74698170 -0.62725470
vn 0.07165970 -0.73154710 0.67801450
vn 0.00000010 -0.67114820 0.74132320
vn 0.00000010 -0.74698250 -0.66484370
vn -0.07165940 -0.73154710 0.67801460
vn -0.22038580 -0.74698170 -0.62725470
vn 0.07665290 -0.68419750 -0.72525730
vn 0.24573730 -0.67114900 0.69940860
vn -0.41584940 -0.74698200 -0.51873610
vn 0.46368530 -0.67114870 0.57840760
vn -0.56429030 -0.74698200 -0.35156010
vn -0.21181230 -0.73154720 0.64805420
vn -0.65560620 -0.72659960 -0.20550850
vn 0.62920190 -0.67114850 0.39200090
vn 0.22657090 -0.68419770 -0.69320940
vn 0.69194200 -0.68860100 0.21689830
vn -0.34260520 -0.73154720 0.58945780
vn 0.36647730 -0.68419750 -0.63053020
vn -0.45825900 -0.73154730 0.50481410
vn 0.49019010 -0.68419740 -0.53998860
vn -0.55366360 -0.73154720 0.39786370
vn 0.59224180 -0.68419750 -0.42558600
vn -0.62460230 -0.73154720 0.27333250
vn 0.66812350 -0.68419740 -0.29237780
vn -0.68523340 -0.71914580 -0.11525860
vn -0.66794120 -0.73154720 0.13672320
vn -0.68176500 -0.73154720 -0.00592770
vn 0.70861820 -0.69545220 0.11919200
vn 0.71448230 -0.68419750 -0.14624970
vn 0.72926940 -0.68419740 0.00634070
vn -0.72926940 0.68419740 0.00634070
vn -0.71448230 0.68419750 -0.14624970
vn -0.70861820 0.69545220 0.11919200
vn 0.68176500 0.73154720 -0.00592770
vn 0.66794120 0.73154730 0.13672320
vn 0.68523340 0.71914580 -0.11525860
vn -0.66812350 0.68419740 -0.29237780
vn 0.62460230 0.73154720 0.27333250
vn -0.59224180 0.68419750 -0.42558600
vn 0.55366360 0.73154720 0.39786370
vn -0.49019000 0.68419750 -0.53998860
vn 0.45825900 0.73154730 0.50481410
vn -0.36647740 0.68419740 -0.63053010
vn 0.34260520 0.73154720 0.58945780
vn -0.69194200 0.68860100 0.21689830
vn -0.22657090 0.68419770 -0.69320940
vn -0.62920190 0.67114850 0.39200090
vn 0.65560620 0.72659960 -0.20550850
vn 0.21181230 0.73154720 0.64805420
vn 0.56429030 0.74698200 -0.35156010
vn -0.46368530 0.67114880 0.57840760
vn 0.41584940 0.74698200 -0.51873610
vn -0.24573730 0.67114900 0.69940860
vn -0.07665290 0.68419750 -0.72525730
vn 0.22038570 0.74698170 -0.62725470
vn 0.07165940 0.73154720 0.67801460
vn -0.00000010 0.67114820 0.74132320
vn -0.00000010 0.74698250 -0.66484370
vn -0.07165970 0.73154720 0.67801450
vn -0.22038600 0.74698170 -0.62725470
vn 0.07665260 0.68419750 -0.72525730
vn 0.24573710 0.67114890 0.69940860
vn -0.41584970 0.74698190 -0.51873600
vn 0.46368520 0.67114880 0.57840760
vn -0.56429050 0.74698180 -0.35156010
vn -0.21181240 0.73154720 0.64805420
vn -0.65560690 0.72659880 -0.20550870
vn 0.62920180 0.67114870 0.39200090
vn 0.22657070 0.68419760 -0.69320950
vn 0.69194140 0.68860170 0.21689820
vn -0.34260540 0.73154700 0.58945790
vn 0.36647710 0.68419750 -0.63053010
vn -0.45825920 0.73154720 0.50481410
vn 0.49018990 0.68419750 -0.53998860
vn -0.55366370 0.73154710 0.39786370
vn 0.59224150 0.68419780 -0.42558610
vn -0.62460260 0.73154710 0.27333250
vn 0.66812340 0.68419770 -0.29237780
vn -0.68523320 0.71914600 -0.11525850
vn -0.66794150 0.73154710 0.13672320
vn -0.68176510 0.73154710 -0.00592770
vn 0.70861850 0.69545170 0.11919210
vn 0.71448210 0.68419770 -0.14624970
vn 0.72926910 0.68419770 0.00634070
f 3//3 55//55 1//1
f 55//55 56//56 1//1
f 56//56 2//2 1//1
f 4//4 3//3 1//1
f 5//5 4//4 1//1
f 2//2 5//5 1//1
f 56//56 61//61 2//2
f 61//61 7//7 2//2
f 8//8 5//5 2//2
f 7//7 8//8 2//2
f 69//69 57//57 3//3
f 15//15 69//69 3//3
f 57//57 55//55 3//3
f 6//6 15//15 3//3
f 4//4 6//6 3//3
f 5//5 59//59 4//4
f 59//59 58//58 4//4
f 58//58 6//6 4//4
f 8//8 62//62 5//5
f 62//62 59//59 5//5
f 18//18 15//15 6//6
f 60//60 18//18 6//6
f 58//58 60//60 6//6
f 61//61 63//63 7//7
f 63//63 9//9 7//7
f 10//10 8//8 7//7
f 9//9 10//10 7//7
f 10//10 64//64 8//8
f 64//64 62//62 8//8
f 63//63 65//65 9//9
f 65//65 11//11 9//9
f 12//12 10//10 9//9
f 11//11 12//12 9//9
f 12//12 66//66 10//10
f 66//66 64//64 10//10
f 65//65 67//67 11//11
f 67//67 13//13 11//11
f 14//14 12//12 11//11
f 13//13 14//14 11//11
f 14//14 68//68 12//12
f 68//68 66//66 12//12
f 67//67 70//70 13//13
f 70//70 16//16 13//13
f 19//19 14//14 13//13
f 16//16 19//19 13//13
f 19//19 73//73 14//14
f 73//73 68//68 14//14
f 17//17 69//69 15//15
f 18//18 17//17 15//15
f 70//70 78//78 16//16
f 78//78 24//24 16//16
f 26//26 19//19 16//16
f 24//24 26//26 16//16
f 21//21 71//71 17//17
f 71//71 69//69 17//17
f 20//20 21//21 17//17
f 18//18 20//20 17//17
f 72//72 20//20 18//18
f 60//60 72//72 18//18
f 26//26 80//80 19//19
f 80//80 73//73 19//19
f 22//22 21//21 20//20
f 72//72 74//74 20//20
f 74//74 22//22 20//20
f 23//23 75//75 21//21
f 75//75 71//71 21//21
f 22//22 23//23 21//21
f 25//25 23//23 22//22
f 74//74 76//76 22//22
f 76//76 25//25 22//22
f 27//27 77//77 23//23
f 77//77 75//75 23//23
f 25//25 27//27 23//23
f 78//78 85//85 24//24
f 85//85 31//31 24//24
f 29//29 26//26 24//24
f 31//31 29//29 24//24
f 28//28 27//27 25//25
f 76//76 79//79 25//25
f 79//79 28//28 25//25
f 29//29 83//83 26//26
f 83//83 80//80 26//26
f 32//32 81//81 27//27
f 81//81 77//77 27//27
f 28//28 32//32 27//27
f 30//30 32//32 28//28
f 79//79 82//82 28//28
f 82//82 30//30 28//28
f 31//31 36//36 29//29
f 36//36 90//90 29//29
f 90//90 83//83 29//29
f 33//33 34//34 30//30
f 34//34 32//32 30//30
f 82//82 84//84 30//30
f 84//84 33//33 30//30
f 85//85 93//93 31//31
f 93//93 39//39 31//31
f 39//39 36//36 31//31
f 34//34 86//86 32//32
f 86//86 81//81 32//32
f 35//35 38//38 33//33
f 38//38 34//34 33//33
f 84//84 87//87 33//33
f 87//87 35//35 33//33
f 38//38 88//88 34//34
f 88//88 86//86 34//34
f 37//37 40//40 35//35
f 40//40 38//38 35//35
f 87//87 89//89 35//35
f 89//89 37//37 35//35
f 39//39 41//41 36//36
f 41//41 95//95 36//36
f 95//95 90//90 36//36
f 49//49 52//52 37//37
f 52//52 40//40 37//37
f 89//89 91//91 37//37
f 91//91 49//49 37//37
f 40//40 92//92 38//38
f 92//92 88//88 38//38
f 93//93 96//96 39//39
f 96//96 42//42 39//39
f 42//42 41//41 39//39
f 94//94 92//92 40//40
f 106//106 94//94 40//40
f 52//52 106//106 40//40
f 42//42 43//43 41//41
f 43//43 97//97 41//41
f 97//97 95//95 41//41
f 96//96 98//98 42//42
f 98//98 44//44 42//42
f 44//44 43//43 42//42
f 44//44 45//45 43//43
f 45//45 99//99 43//43
f 99//99 97//97 43//43
f 98//98 100//100 44//44
f 100//100 46//46 44//44
f 46//46 45//45 44//44
f 46//46 47//47 45//45
f 47//47 101//101 45//45
f 101//101 99//99 45//45
f 100//100 102//102 46//46
f 102//102 48//48 46//46
f 48//48 47//47 46//46
f 48//48 50//50 47//47
f 50//50 104//104 47//47
f 104//104 101//101 47//47
f 102//102 107//107 48//48
f 107//107 53//53 48//48
f 53//53 50//50 48//48
f 51//51 54//54 49//49
f 54//54 52//52 49//49
f 103//103 51//51 49//49
f 91//91 103//103 49//49
f 53//53 51//51 50//50
f 51//51 105//105 50//50
f 105//105 104//104 50//50
f 53//53 54//54 51//51
f 103//103 105//105 51//51
f 54//54 106//106 52//52
f 107//107 108//108 53//53
f 108//108 54//54 53//53
f 108//108 106//106 54//54
f 58//58 56//56 55//55
f 60//60 58//58 55//55
f 57//57 60//60 55//55
f 59//59 61//61 56//56
f 58//58 59//59 56//56
f 72//72 60//60 57//57
f 69//69 72//72 57//57
f 62//62 61//61 59//59
f 62//62 63//63 61//61
f 64//64 63//63 62//62
f 64//64 65//65 63//63
f 66//66 65//65 64//64
f 66//66 67//67 65//65
f 68//68 67//67 66//66
f 68//68 70//70 67//67
f 73//73 70//70 68//68
f 74//74 72//72 69//69
f 71//71 74//74 69//69
f 73//73 78//78 70//70
f 76//76 74//74 71//71
f 75//75 76//76 71//71
f 80//80 78//78 73//73
f 79//79 76//76 75//75
f 77//77 79//79 75//75
f 82//82 79//79 77//77
f 81//81 82//82 77//77
f 80//80 85//85 78//78
f 83//83 85//85 80//80
f 84//84 82//82 81//81
f 86//86 84//84 81//81
f 90//90 93//93 83//83
f 93//93 85//85 83//83
f 86//86 87//87 84//84
f 88//88 87//87 86//86
f 88//88 89//89 87//87
f 92//92 89//89 88//88
f 92//92 91//91 89//89
f 95//95 96//96 90//90
f 96//96 93//93 90//90
f 92//92 94//94 91//91
f 94//94 103//103 91//91
f 106//106 103//103 94//94
f 97//97 98//98 95//95
f 98//98 96//96 95//95
f 99//99 100//100 97//97
f 100//100 98//98 97//97
f 101//101 102//102 99//99
f 102//102 100//100 99//99
f 104//104 107//107 101//101
f 107//107 102//102 101//101
f 106//106 105//105 103//103
f 105//105 108//108 104//104
f 108//108 107//107 104//104
f 106//106 108//108 105//105