mtllib material.mtl
usemtl material_0
v -0.14160530 -0.00352000 -0.00967380
v -0.14304960 -0.00352000 -0.00821630
v -0.13994600 -0.00352000 -0.01088090
v -0.14424130 -0.00352000 -0.00654600
v -0.13811450 -0.00352000 -0.01180600
v -0.14514970 -0.00352000 -0.00470610
v -0.13615830 -0.00352000 -0.01242550
v -0.14575110 -0.00352000 -0.00274430
v -0.13412810 -0.00352000 -0.01272310
v -0.14603010 -0.00352000 -0.00071150
v -0.13207650 -0.00352000 -0.01269120
v -0.14597940 -0.00352000 0.00133980
v -0.13005650 -0.00352000 -0.01233060
v -0.14560020 -0.00352000 0.00335640
v -0.12812060 -0.00352000 -0.01165060
v -0.14490260 -0.00352000 0.00528600
v -0.13539120 -0.00352000 -0.00280650
v -0.13612550 -0.00352000 -0.00206540
v -0.13447110 -0.00352000 -0.00329830
v -0.13660880 -0.00352000 -0.00114080
v -0.13344690 -0.00352000 -0.00349690
v -0.13679810 -0.00352000 -0.00011480
v -0.12631880 -0.00352000 -0.01066890
v -0.14390440 -0.00352000 0.00707880
v -0.13240960 -0.00352000 -0.00338490
v -0.13667650 -0.00352000 0.00092140
v -0.13145150 -0.00352000 -0.00297210
v -0.13625490 -0.00352000 0.00187570
v -0.12469780 -0.00352000 -0.00941090
v -0.14263150 -0.00352000 0.00868820
v -0.13065760 -0.00352000 -0.00229520
v -0.13557080 -0.00352000 0.00266330
v -0.13009840 -0.00352000 -0.00141430
v -0.13468480 -0.00352000 0.00321430
v -0.12329960 -0.00352000 -0.00790910
v -0.14111700 -0.00352000 0.01007250
v -0.12982380 -0.00352000 -0.00040780
v -0.13367590 -0.00352000 0.00347970
v -0.12985800 -0.00352000 0.00063490
v -0.13263350 -0.00352000 0.00343600
v -0.13019810 -0.00352000 0.00162120
v -0.13165030 -0.00352000 0.00308690
v -0.13081380 -0.00352000 0.00246350
v -0.12216040 -0.00352000 -0.00620250
v -0.13940000 -0.00352000 0.01119600
v -0.12130970 -0.00352000 -0.00433530
v -0.13752510 -0.00352000 0.01202960
v -0.12076950 -0.00352000 -0.00235580
v -0.13554070 -0.00352000 0.01255160
v -0.12055390 -0.00352000 -0.00031520
v -0.13349820 -0.00352000 0.01274850
v -0.12066840 -0.00352000 0.00173350
v -0.13145070 -0.00352000 0.01261520
v -0.12111000 -0.00352000 0.00373730
v -0.12945100 -0.00352000 0.01215520
v -0.12186740 -0.00352000 0.00564430
v -0.12755100 -0.00352000 0.01138030
v -0.12292080 -0.00352000 0.00740510
v -0.12579990 -0.00352000 0.01031080
v -0.12424310 -0.00352000 0.00897420
v -0.14160530 -0.00372000 -0.00967380
v -0.14304960 -0.00372000 -0.00821630
v -0.13994600 -0.00372000 -0.01088090
v -0.14424130 -0.00372000 -0.00654600
v -0.13811450 -0.00372000 -0.01180600
v -0.14514970 -0.00372000 -0.00470610
v -0.13615830 -0.00372000 -0.01242550
v -0.14575110 -0.00372000 -0.00274430
v -0.13412810 -0.00372000 -0.01272310
v -0.14603010 -0.00372000 -0.00071150
v -0.13207650 -0.00372000 -0.01269120
v -0.14597940 -0.00372000 0.00133980
v -0.13005650 -0.00372000 -0.01233060
v -0.14560020 -0.00372000 0.00335640
v -0.12812060 -0.00372000 -0.01165060
v -0.14490260 -0.00372000 0.00528600
v -0.13539120 -0.00372000 -0.00280650
v -0.13612550 -0.00372000 -0.00206540
v -0.13447110 -0.00372000 -0.00329830
v -0.13660880 -0.00372000 -0.00114080
v -0.13344690 -0.00372000 -0.00349690
v -0.13679810 -0.00372000 -0.00011480
v -0.12631880 -0.00372000 -0.01066890
v -0.14390440 -0.00372000 0.00707880
v -0.13240960 -0.00372000 -0.00338490
v -0.13667650 -0.00372000 0.00092140
v -0.13145150 -0.00372000 -0.00297210
v -0.13625490 -0.00372000 0.00187570
v -0.12469780 -0.00372000 -0.00941090
v -0.14263150 -0.00372000 0.00868820
v -0.13065760 -0.00372000 -0.00229520
v -0.13557080 -0.00372000 0.00266330
v -0.13009840 -0.00372000 -0.00141430
v -0.13468480 -0.00372000 0.00321430
v -0.12329960 -0.00372000 -0.00790910
v -0.14111700 -0.00372000 0.01007250
v -0.12982380 -0.00372000 -0.00040780
v -0.13367590 -0.00372000 0.00347970
v -0.12985800 -0.00372000 0.00063490
v -0.13263350 -0.00372000 0.00343600
v -0.13019810 -0.00372000 0.00162120
v -0.13165030 -0.00372000 0.00308690
v -0.13081380 -0.00372000 0.00246350
v -0.12216040 -0.00372000 -0.00620250
v -0.13940000 -0.00372000 0.01119600
v -0.12130970 -0.00372000 -0.00433530
v -0.13752510 -0.00372000 0.01202960
v -0.12076950 -0.00372000 -0.00235580
v -0.13554070 -0.00372000 0.01255160
v -0.12055390 -0.00372000 -0.00031520
v -0.13349820 -0.00372000 0.01274850
v -0.12066840 -0.00372000 0.00173350
v -0.13145070 -0.00372000 0.01261520
v -0.12111000 -0.00372000 0.00373730
v -0.12945100 -0.00372000 0.01215520
v -0.12186740 -0.00372000 0.00564430
v -0.12755100 -0.00372000 0.01138030
v -0.12292080 -0.00372000 0.00740510
v -0.12579990 -0.00372000 0.01031080
v -0.12424310 -0.00372000 0.00897420
vn -0.47184100 0.68943640 -0.54958490
vn -0.55389050 0.68943600 -0.46677970
vn -0.37757120 0.68943580 -0.61815720
vn -0.62159410 0.68943640 -0.37188490
vn -0.27352180 0.68943640 -0.67071840
vn -0.67319920 0.68943600 -0.26735900
vn -0.16238940 0.68943610 -0.70590900
vn -0.70736870 0.68943620 -0.15590790
vn -0.04705040 0.68943640 -0.72281650
vn -0.72321890 0.68943530 -0.04041700
vn 0.06950670 0.68943630 -0.72100380
vn -0.72033530 0.68943680 0.07611890
vn 0.18426360 0.68943630 -0.70051730
vn -0.69879790 0.68943610 0.19068130
vn 0.29424880 0.68943610 -0.66188790
vn -0.65916110 0.68943600 0.30030770
vn 0.40040620 0.74224280 0.53735510
vn 0.54100520 0.74224250 0.39546120
vn 0.22422880 0.74224290 0.63150380
vn 0.63353310 0.74224310 0.21842870
vn 0.02812800 0.74224280 0.66954050
vn 0.66976920 0.74224390 0.02198460
vn 0.39661250 0.68943640 -0.60611550
vn -0.60245240 0.68943630 0.40215530
vn -0.17047240 0.74224310 0.64808520
vn 0.64649530 0.74224200 -0.17641040
vn -0.35392530 0.74224250 0.56904580
vn 0.56577490 0.74224350 -0.35912880
vn 0.48870440 0.68943600 -0.53464570
vn -0.53014080 0.68943580 0.49358800
vn -0.50592940 0.74224310 0.43944370
vn 0.43478380 0.74224300 -0.50993970
vn -0.61298080 0.74224320 0.27079450
vn 0.26516050 0.74224320 -0.61543890
vn 0.56813880 0.68943620 -0.44932850
vn -0.44409800 0.68943600 0.57223680
vn -0.66556610 0.74224300 0.07808420
vn 0.07197610 0.74224320 -0.66625420
vn -0.65901240 0.74224320 -0.12156390
vn -0.12760380 0.74224320 -0.65786950
vn -0.59390180 0.74224350 -0.31041160
vn -0.31584570 0.74224320 -0.59103010
vn -0.47602230 0.74224240 -0.47167690
vn 0.63285850 0.68943640 -0.35237420
vn -0.34655410 0.68943600 0.63606460
vn 0.68118860 0.68943580 -0.24629310
vn -0.24003450 0.68943590 0.68341910
vn 0.71187500 0.68943640 -0.13383380
vn -0.12729810 0.68943590 0.71307320
vn 0.72412560 0.68943560 -0.01790740
vn -0.01126450 0.68943600 0.72425910
vn 0.71762010 0.68943630 0.09848340
vn 0.10506070 0.68943580 0.71668730
vn 0.69252990 0.68943610 0.21232130
vn 0.21866440 0.68943600 0.69055340
vn 0.64950320 0.68943600 0.32066140
vn 0.32660530 0.68943600 0.64653470
vn 0.58965440 0.68943630 0.42069620
vn 0.42608720 0.68943600 0.58577110
vn 0.51453440 0.68943570 0.50983610
vn -0.47184080 -0.68943620 -0.54958530
vn -0.55389050 -0.68943570 -0.46678020
vn -0.37757100 -0.68943570 -0.61815740
vn -0.62159410 -0.68943610 -0.37188530
vn -0.27352180 -0.68943610 -0.67071880
vn -0.67319920 -0.68943590 -0.26735930
vn -0.16238940 -0.68943570 -0.70590940
vn -0.70736870 -0.68943620 -0.15590830
vn -0.04705040 -0.68943580 -0.72281710
vn -0.72321870 -0.68943540 -0.04041740
vn 0.06950670 -0.68943580 -0.72100430
vn -0.72033540 -0.68943670 0.07611860
vn 0.18426370 -0.68943580 -0.70051790
vn -0.69879800 -0.68943610 0.19068090
vn 0.29424870 -0.68943590 -0.66188810
vn -0.65916120 -0.68943600 0.30030730
vn 0.40040640 -0.74224300 0.53735470
vn 0.54100520 -0.74224260 0.39546080
vn 0.22422890 -0.74224320 0.63150330
vn 0.63353320 -0.74224310 0.21842830
vn 0.02812800 -0.74224310 0.66954020
vn 0.66976900 -0.74224410 0.02198420
vn 0.39661260 -0.68943600 -0.60611590
vn -0.60245250 -0.68943640 0.40215490
vn -0.17047250 -0.74224330 0.64808490
vn 0.64649520 -0.74224200 -0.17641070
vn -0.35392530 -0.74224270 0.56904550
vn 0.56577490 -0.74224330 -0.35912910
vn 0.48870430 -0.68943580 -0.53464600
vn -0.53014090 -0.68943580 0.49358790
vn -0.50592940 -0.74224320 0.43944340
vn 0.43478370 -0.74224270 -0.50994010
vn -0.61298080 -0.74224330 0.27079420
vn 0.26516040 -0.74224290 -0.61543930
vn 0.56813870 -0.68943620 -0.44932870
vn -0.44409790 -0.68943640 0.57223650
vn -0.66556630 -0.74224290 0.07808390
vn 0.07197610 -0.74224280 -0.66625460
vn -0.65901250 -0.74224310 -0.12156420
vn -0.12760380 -0.74224300 -0.65786980
vn -0.59390190 -0.74224330 -0.31041190
vn -0.31584560 -0.74224310 -0.59103040
vn -0.47602220 -0.74224220 -0.47167720
vn 0.63285860 -0.68943610 -0.35237460
vn -0.34655420 -0.68943610 0.63606450
vn 0.68118860 -0.68943580 -0.24629340
vn -0.24003450 -0.68943630 0.68341870
vn 0.71187480 -0.68943650 -0.13383410
vn -0.12729810 -0.68943640 0.71307270
vn 0.72412560 -0.68943560 -0.01790780
vn -0.01126450 -0.68943640 0.72425870
vn 0.71762020 -0.68943630 0.09848300
vn 0.10506060 -0.68943660 0.71668650
vn 0.69252980 -0.68943630 0.21232090
vn 0.21866440 -0.68943630 0.69055300
vn 0.64950320 -0.68943610 0.32066100
vn 0.32660540 -0.68943620 0.64653440
vn 0.58965460 -0.68943640 0.42069590
vn 0.42608730 -0.68943640 0.58577070
vn 0.51453450 -0.68943600 0.50983570
f 62//62 2//2 1//1
f 61//61 62//62 1//1
f 3//3 61//61 1//1
f 17//17 3//3 1//1
f 18//18 17//17 1//1
f 2//2 18//18 1//1
f 64//64 4//4 2//2
f 62//62 64//64 2//2
f 4//4 18//18 2//2
f 63//63 61//61 3//3
f 5//5 63//63 3//3
f 17//17 19//19 3//3
f 19//19 5//5 3//3
f 66//66 6//6 4//4
f 64//64 66//66 4//4
f 20//20 18//18 4//4
f 6//6 20//20 4//4
f 65//65 63//63 5//5
f 7//7 65//65 5//5
f 19//19 7//7 5//5
f 68//68 8//8 6//6
f 66//66 68//68 6//6
f 8//8 20//20 6//6
f 67//67 65//65 7//7
f 9//9 67//67 7//7
f 19//19 21//21 7//7
f 21//21 9//9 7//7
f 70//70 10//10 8//8
f 68//68 70//70 8//8
f 22//22 20//20 8//8
f 10//10 22//22 8//8
f 69//69 67//67 9//9
f 11//11 69//69 9//9
f 21//21 11//11 9//9
f 72//72 12//12 10//10
f 70//70 72//72 10//10
f 12//12 22//22 10//10
f 71//71 69//69 11//11
f 13//13 71//71 11//11
f 21//21 25//25 11//11
f 25//25 13//13 11//11
f 74//74 14//14 12//12
f 72//72 74//74 12//12
f 26//26 22//22 12//12
f 14//14 26//26 12//12
f 73//73 71//71 13//13
f 15//15 73//73 13//13
f 25//25 15//15 13//13
f 76//76 16//16 14//14
f 74//74 76//76 14//14
f 16//16 26//26 14//14
f 75//75 73//73 15//15
f 23//23 75//75 15//15
f 27//27 23//23 15//15
f 25//25 27//27 15//15
f 84//84 24//24 16//16
f 76//76 84//84 16//16
f 28//28 26//26 16//16
f 24//24 28//28 16//16
f 18//18 78//78 17//17
f 78//78 77//77 17//17
f 77//77 19//19 17//17
f 20//20 80//80 18//18
f 80//80 78//78 18//18
f 77//77 79//79 19//19
f 79//79 21//21 19//19
f 22//22 82//82 20//20
f 82//82 80//80 20//20
f 79//79 81//81 21//21
f 81//81 25//25 21//21
f 26//26 86//86 22//22
f 86//86 82//82 22//22
f 83//83 75//75 23//23
f 29//29 83//83 23//23
f 27//27 29//29 23//23
f 90//90 30//30 24//24
f 84//84 90//90 24//24
f 30//30 28//28 24//24
f 81//81 85//85 25//25
f 85//85 27//27 25//25
f 28//28 88//88 26//26
f 88//88 86//86 26//26
f 31//31 29//29 27//27
f 85//85 87//87 27//27
f 87//87 31//31 27//27
f 30//30 32//32 28//28
f 32//32 92//92 28//28
f 92//92 88//88 28//28
f 89//89 83//83 29//29
f 35//35 89//89 29//29
f 31//31 35//35 29//29
f 96//96 36//36 30//30
f 90//90 96//96 30//30
f 36//36 32//32 30//30
f 33//33 44//44 31//31
f 44//44 35//35 31//31
f 87//87 91//91 31//31
f 91//91 33//33 31//31
f 45//45 34//34 32//32
f 36//36 45//45 32//32
f 34//34 94//94 32//32
f 94//94 92//92 32//32
f 37//37 48//48 33//33
f 48//48 46//46 33//33
f 46//46 44//44 33//33
f 91//91 93//93 33//33
f 93//93 37//37 33//33
f 45//45 47//47 34//34
f 47//47 38//38 34//34
f 38//38 98//98 34//34
f 98//98 94//94 34//34
f 95//95 89//89 35//35
f 44//44 95//95 35//35
f 105//105 45//45 36//36
f 96//96 105//105 36//36
f 39//39 50//50 37//37
f 50//50 48//48 37//37
f 93//93 97//97 37//37
f 97//97 39//39 37//37
f 51//51 40//40 38//38
f 47//47 49//49 38//38
f 49//49 51//51 38//38
f 40//40 100//100 38//38
f 100//100 98//98 38//38
f 41//41 54//54 39//39
f 54//54 52//52 39//39
f 52//52 50//50 39//39
f 97//97 99//99 39//39
f 99//99 41//41 39//39
f 51//51 53//53 40//40
f 53//53 55//55 40//40
f 55//55 42//42 40//40
f 42//42 102//102 40//40
f 102//102 100//100 40//40
f 43//43 58//58 41//41
f 58//58 56//56 41//41
f 56//56 54//54 41//41
f 99//99 101//101 41//41
f 101//101 43//43 41//41
f 59//59 43//43 42//42
f 55//55 57//57 42//42
f 57//57 59//59 42//42
f 43//43 103//103 42//42
f 103//103 102//102 42//42
f 59//59 60//60 43//43
f 60//60 58//58 43//43
f 101//101 103//103 43//43
f 104//104 95//95 44//44
f 46//46 104//104 44//44
f 107//107 47//47 45//45
f 105//105 107//107 45//45
f 106//106 104//104 46//46
f 48//48 106//106 46//46
f 109//109 49//49 47//47
f 107//107 109//109 47//47
f 108//108 106//106 48//48
f 50//50 108//108 48//48
f 111//111 51//51 49//49
f 109//109 111//111 49//49
f 110//110 108//108 50//50
f 52//52 110//110 50//50
f 113//113 53//53 51//51
f 111//111 113//113 51//51
f 112//112 110//110 52//52
f 54//54 112//112 52//52
f 115//115 55//55 53//53
f 113//113 115//115 53//53
f 114//114 112//112 54//54
f 56//56 114//114 54//54
f 117//117 57//57 55//55
f 115//115 117//117 55//55
f 116//116 114//114 56//56
f 58//58 116//116 56//56
f 119//119 59//59 57//57
f 117//117 119//119 57//57
f 118//118 116//116 58//58
f 60//60 118//118 58//58
f 119//119 120//120 59//59
f 120//120 60//60 59//59
f 120//120 118//118 60//60
f 77//77 62//62 61//61
f 63//63 77//77 61//61
f 78//78 64//64 62//62
f 77//77 78//78 62//62
f 79//79 77//77 63//63
f 65//65 79//79 63//63
f 78//78 80//80 64//64
f 80//80 66//66 64//64
f 67//67 79//79 65//65
f 80//80 68//68 66//66
f 81//81 79//79 67//67
f 69//69 81//81 67//67
f 80//80 82//82 68//68
f 82//82 70//70 68//68
f 71//71 81//81 69//69
f 82//82 72//72 70//70
f 85//85 81//81 71//71
f 73//73 85//85 71//71
f 82//82 86//86 72//72
f 86//86 74//74 72//72
f 75//75 85//85 73//73
f 86//86 76//76 74//74
f 87//87 85//85 75//75
f 83//83 87//87 75//75
f 88//88 84//84 76//76
f 86//86 88//88 76//76
f 89//89 87//87 83//83
f 88//88 90//90 84//84
f 89//89 91//91 87//87
f 92//92 90//90 88//88
f 95//95 91//91 89//89
f 92//92 96//96 90//90
f 104//104 93//93 91//91
f 95//95 104//104 91//91
f 94//94 105//105 92//92
f 105//105 96//96 92//92
f 104//104 106//106 93//93
f 106//106 97//97 93//93
f 98//98 109//109 94//94
f 109//109 107//107 94//94
f 107//107 105//105 94//94
f 106//106 108//108 97//97
f 108//108 110//110 97//97
f 110//110 99//99 97//97
f 100//100 111//111 98//98
f 111//111 109//109 98//98
f 114//114 101//101 99//99
f 110//110 112//112 99//99
f 112//112 114//114 99//99
f 102//102 115//115 100//100
f 115//115 113//113 100//100
f 113//113 111//111 100//100
f 118//118 103//103 101//101
f 114//114 116//116 101//101
f 116//116 118//118 101//101
f 103//103 119//119 102//102
f 119//119 117//117 102//102
f 117//117 115//115 102//102
f 118//118 120//120 103//103
f 120//120 119//119 103//103