mtllib material.mtl
usemtl material_0
v 0.14020000 0.00850000 0.00010000
v 0.13697500 0.00850000 0.00010000
v 0.13620000 0.00850000 0.00010000
v 0.14020000 0.00850000 0.00510000
v 0.13620000 0.00850000 0.00510000
v 0.14020000 0.00050000 0.00010000
v 0.13697500 0.00050000 0.00010000
v 0.13620000 0.00050000 0.00010000
v 0.14020000 0.00050000 0.00510000
v 0.13620000 0.00050000 0.00510000
v 0.14020000 -0.00050000 0.00010000
v 0.13697500 -0.00050000 0.00010000
v 0.13620000 -0.00050000 0.00010000
v 0.14020000 -0.00050000 0.00510000
v 0.13620000 -0.00050000 0.00510000
v 0.14020000 -0.00150000 0.00010000
v 0.13620000 -0.00150000 0.00010000
v 0.14020000 -0.00850000 0.00010000
v 0.13697500 -0.00850000 0.00010000
v 0.13620000 -0.00850000 0.00010000
v 0.14020000 -0.00850000 0.00510000
v 0.13620000 -0.00850000 0.00510000
v 0.14020000 0.00850000 -0.01930000
v 0.13697500 0.00850000 -0.01930000
v 0.13620000 0.00850000 -0.01930000
v 0.14020000 0.00850000 -0.01430000
v 0.13620000 0.00850000 -0.01430000
v 0.14020000 0.00050000 -0.01930000
v 0.13697500 0.00050000 -0.01930000
v 0.13620000 0.00050000 -0.01930000
v 0.14020000 0.00050000 -0.01430000
v 0.13620000 0.00050000 -0.01430000
v 0.14020000 -0.00050000 -0.01930000
v 0.13697500 -0.00050000 -0.01930000
v 0.13620000 -0.00050000 -0.01930000
v 0.14020000 -0.00050000 -0.01430000
v 0.13620000 -0.00050000 -0.01430000
v 0.14020000 -0.00150000 -0.01930000
v 0.13620000 -0.00150000 -0.01930000
v 0.14020000 -0.00850000 -0.01930000
v 0.13697500 -0.00850000 -0.01930000
v 0.13620000 -0.00850000 -0.01930000
v 0.14020000 -0.00850000 -0.01430000
v 0.13620000 -0.00850000 -0.01430000
v 0.14020000 0.00850000 -0.00960000
v 0.13697500 0.00850000 -0.00960000
v 0.13620000 0.00850000 -0.00960000
v 0.14020000 0.00850000 -0.00460000
v 0.13620000 0.00850000 -0.00460000
v 0.14020000 0.00050000 -0.00960000
v 0.13697500 0.00050000 -0.00960000
v 0.13620000 0.00050000 -0.00960000
v 0.14020000 0.00050000 -0.00460000
v 0.13620000 0.00050000 -0.00460000
v 0.14020000 -0.00050000 -0.00960000
v 0.13697500 -0.00050000 -0.00960000
v 0.13620000 -0.00050000 -0.00960000
v 0.14020000 -0.00050000 -0.00460000
v 0.13620000 -0.00050000 -0.00460000
v 0.14020000 -0.00150000 -0.00960000
v 0.13620000 -0.00150000 -0.00960000
v 0.14020000 -0.00850000 -0.00960000
v 0.13697500 -0.00850000 -0.00960000
v 0.13620000 -0.00850000 -0.00960000
v 0.14020000 -0.00850000 -0.00460000
v 0.13620000 -0.00850000 -0.00460000
v -0.14020000 -0.00850000 0.00010000
v -0.13697500 -0.00850000 0.00010000
v -0.13620000 -0.00850000 0.00010000
v -0.14020000 -0.00850000 0.00510000
v -0.13620000 -0.00850000 0.00510000
v -0.14020000 -0.00050000 0.00010000
v -0.13697500 -0.00050000 0.00010000
v -0.13620000 -0.00050000 0.00010000
v -0.14020000 -0.00050000 0.00510000
v -0.13620000 -0.00050000 0.00510000
v -0.14020000 0.00050000 0.00010000
v -0.13697500 0.00050000 0.00010000
v -0.13620000 0.00050000 0.00010000
v -0.14020000 0.00050000 0.00510000
v -0.13620000 0.00050000 0.00510000
v -0.14020000 0.00150000 0.00010000
v -0.13620000 0.00150000 0.00010000
v -0.14020000 0.00850000 0.00010000
v -0.13697500 0.00850000 0.00010000
v -0.13620000 0.00850000 0.00010000
v -0.14020000 0.00850000 0.00510000
v -0.13620000 0.00850000 0.00510000
v -0.14020000 -0.00850000 -0.01930000
v -0.13697500 -0.00850000 -0.01930000
v -0.13620000 -0.00850000 -0.01930000
v -0.14020000 -0.00850000 -0.01430000
v -0.13620000 -0.00850000 -0.01430000
v -0.14020000 -0.00050000 -0.01930000
v -0.13697500 -0.00050000 -0.01930000
v -0.13620000 -0.00050000 -0.01930000
v -0.14020000 -0.00050000 -0.01430000
v -0.13620000 -0.00050000 -0.01430000
v -0.14020000 0.00050000 -0.01930000
v -0.13697500 0.00050000 -0.01930000
v -0.13620000 0.00050000 -0.01930000
v -0.14020000 0.00050000 -0.01430000
v -0.13620000 0.00050000 -0.01430000
v -0.14020000 0.00150000 -0.01930000
v -0.13620000 0.00150000 -0.01930000
v -0.14020000 0.00850000 -0.01930000
v -0.13697500 0.00850000 -0.01930000
v -0.13620000 0.00850000 -0.01930000
v -0.14020000 0.00850000 -0.01430000
v -0.13620000 0.00850000 -0.01430000
v -0.14020000 -0.00850000 -0.00960000
v -0.13697500 -0.00850000 -0.00960000
v -0.13620000 -0.00850000 -0.00960000
v -0.14020000 -0.00850000 -0.00460000
v -0.13620000 -0.00850000 -0.00460000
v -0.14020000 -0.00050000 -0.00960000
v -0.13697500 -0.00050000 -0.00960000
v -0.13620000 -0.00050000 -0.00960000
v -0.14020000 -0.00050000 -0.00460000
v -0.13620000 -0.00050000 -0.00460000
v -0.14020000 0.00050000 -0.00960000
v -0.13697500 0.00050000 -0.00960000
v -0.13620000 0.00050000 -0.00960000
v -0.14020000 0.00050000 -0.00460000
v -0.13620000 0.00050000 -0.00460000
v -0.14020000 0.00150000 -0.00960000
v -0.13620000 0.00150000 -0.00960000
v -0.14020000 0.00850000 -0.00960000
v -0.13697500 0.00850000 -0.00960000
v -0.13620000 0.00850000 -0.00960000
v -0.14020000 0.00850000 -0.00460000
v -0.13620000 0.00850000 -0.00460000
vn 0.30151180 0.30151180 0.90453370
vn -0.00000010 0.70710680 0.70710680
vn -0.30151140 0.30151130 0.90453400
vn 0.57735030 0.57735040 0.57735030
vn -0.57735040 0.57735030 0.57735030
vn 0.30151130 -0.30151130 0.90453410
vn 0.00000010 -0.70710680 0.70710680
vn -0.30151130 -0.30151140 0.90453400
vn 0.57735040 -0.57735030 0.57735030
vn -0.57735030 -0.57735040 0.57735030
vn 0.30151120 0.30151120 0.90453420
vn -0.00000010 0.70710680 0.70710680
vn -0.30151140 0.30151130 0.90453400
vn 0.57735030 0.57735030 0.57735030
vn -0.57735040 0.57735020 0.57735030
vn 0.70710680 0.00000010 0.70710680
vn -0.70710680 -0.00000010 0.70710680
vn 0.30151120 -0.30151120 0.90453420
vn 0.00000010 -0.70710680 0.70710680
vn -0.30151130 -0.30151140 0.90453400
vn 0.57735040 -0.57735030 0.57735030
vn -0.57735030 -0.57735040 0.57735030
vn 0.30151180 0.30151180 0.90453370
vn -0.00000010 0.70710680 0.70710680
vn -0.30151140 0.30151130 0.90453400
vn 0.57735030 0.57735040 0.57735030
vn -0.57735040 0.57735030 0.57735030
vn 0.30151130 -0.30151130 0.90453410
vn 0.00000010 -0.70710680 0.70710680
vn -0.30151130 -0.30151140 0.90453400
vn 0.57735040 -0.57735030 0.57735030
vn -0.57735030 -0.57735040 0.57735030
vn 0.30151120 0.30151120 0.90453420
vn -0.00000010 0.70710680 0.70710680
vn -0.30151140 0.30151130 0.90453400
vn 0.57735020 0.57735040 0.57735030
vn -0.57735040 0.57735030 0.57735030
vn 0.70710680 0.00000010 0.70710680
vn -0.70710680 -0.00000010 0.70710680
vn 0.30151120 -0.30151120 0.90453420
vn 0.00000010 -0.70710680 0.70710680
vn -0.30151130 -0.30151140 0.90453400
vn 0.57735030 -0.57735030 0.57735030
vn -0.57735030 -0.57735040 0.57735030
vn 0.30151170 0.30151180 0.90453380
vn -0.00000010 0.70710680 0.70710680
vn -0.30151140 0.30151130 0.90453400
vn 0.57735030 0.57735040 0.57735030
vn -0.57735040 0.57735030 0.57735030
vn 0.30151130 -0.30151130 0.90453410
vn 0.00000010 -0.70710680 0.70710680
vn -0.30151130 -0.30151140 0.90453400
vn 0.57735040 -0.57735030 0.57735030
vn -0.57735030 -0.57735040 0.57735030
vn 0.30151120 0.30151120 0.90453420
vn -0.00000010 0.70710680 0.70710680
vn -0.30151140 0.30151130 0.90453400
vn 0.57735030 0.57735030 0.57735030
vn -0.57735040 0.57735020 0.57735030
vn 0.70710680 0.00000010 0.70710680
vn -0.70710680 -0.00000010 0.70710680
vn 0.30151120 -0.30151120 0.90453420
vn 0.00000010 -0.70710680 0.70710680
vn -0.30151130 -0.30151140 0.90453400
vn 0.57735040 -0.57735030 0.57735030
vn -0.57735030 -0.57735040 0.57735030
vn -0.30151180 -0.30151180 0.90453370
vn 0.00000010 -0.70710680 0.70710680
vn 0.30151140 -0.30151130 0.90453400
vn -0.57735030 -0.57735040 0.57735030
vn 0.57735040 -0.57735030 0.57735030
vn -0.30151130 0.30151130 0.90453410
vn -0.00000010 0.70710680 0.70710680
vn 0.30151130 0.30151140 0.90453400
vn -0.57735040 0.57735030 0.57735030
vn 0.57735030 0.57735040 0.57735030
vn -0.30151120 -0.30151120 0.90453420
vn 0.00000010 -0.70710680 0.70710680
vn 0.30151140 -0.30151130 0.90453400
vn -0.57735030 -0.57735030 0.57735030
vn 0.57735040 -0.57735020 0.57735030
vn -0.70710680 -0.00000010 0.70710680
vn 0.70710680 0.00000010 0.70710680
vn -0.30151120 0.30151120 0.90453420
vn -0.00000010 0.70710680 0.70710680
vn 0.30151130 0.30151140 0.90453400
vn -0.57735040 0.57735030 0.57735030
vn 0.57735030 0.57735040 0.57735030
vn -0.30151180 -0.30151180 0.90453370
vn 0.00000010 -0.70710680 0.70710680
vn 0.30151140 -0.30151130 0.90453400
vn -0.57735030 -0.57735040 0.57735030
vn 0.57735040 -0.57735030 0.57735030
vn -0.30151130 0.30151130 0.90453410
vn -0.00000010 0.70710680 0.70710680
vn 0.30151130 0.30151140 0.90453400
vn -0.57735040 0.57735030 0.57735030
vn 0.57735030 0.57735040 0.57735030
vn -0.30151120 -0.30151120 0.90453420
vn 0.00000010 -0.70710680 0.70710680
vn 0.30151140 -0.30151130 0.90453400
vn -0.57735020 -0.57735040 0.57735030
vn 0.57735040 -0.57735030 0.57735030
vn -0.70710680 -0.00000010 0.70710680
vn 0.70710680 0.00000010 0.70710680
vn -0.30151120 0.30151120 0.90453420
vn -0.00000010 0.70710680 0.70710680
vn 0.30151130 0.30151140 0.90453400
vn -0.57735030 0.57735030 0.57735030
vn 0.57735030 0.57735040 0.57735030
vn -0.30151170 -0.30151180 0.90453380
vn 0.00000010 -0.70710680 0.70710680
vn 0.30151140 -0.30151130 0.90453400
vn -0.57735030 -0.57735040 0.57735030
vn 0.57735040 -0.57735030 0.57735030
vn -0.30151130 0.30151130 0.90453410
vn -0.00000010 0.70710680 0.70710680
vn 0.30151130 0.30151140 0.90453400
vn -0.57735040 0.57735030 0.57735030
vn 0.57735030 0.57735040 0.57735030
vn -0.30151120 -0.30151120 0.90453420
vn 0.00000010 -0.70710680 0.70710680
vn 0.30151140 -0.30151130 0.90453400
vn -0.57735030 -0.57735030 0.57735030
vn 0.57735040 -0.57735020 0.57735030
vn -0.70710680 -0.00000010 0.70710680
vn 0.70710680 0.00000010 0.70710680
vn -0.30151120 0.30151120 0.90453420
vn -0.00000010 0.70710680 0.70710680
vn 0.30151130 0.30151140 0.90453400
vn -0.57735040 0.57735030 0.57735030
vn 0.57735030 0.57735040 0.57735030
f 2//2 4//4 1//1
f 4//4 9//9 1//1
f 9//9 6//6 1//1
f 3//3 5//5 2//2
f 5//5 4//4 2//2
f 8//8 5//5 3//3
f 5//5 9//9 4//4
f 8//8 10//10 5//5
f 10//10 9//9 5//5
f 9//9 7//7 6//6
f 9//9 10//10 7//7
f 10//10 8//8 7//7
f 14//14 16//16 11//11
f 12//12 14//14 11//11
f 13//13 15//15 12//12
f 15//15 14//14 12//12
f 17//17 15//15 13//13
f 21//21 16//16 14//14
f 15//15 22//22 14//14
f 22//22 21//21 14//14
f 17//17 22//22 15//15
f 21//21 18//18 16//16
f 20//20 22//22 17//17
f 21//21 19//19 18//18
f 21//21 22//22 19//19
f 22//22 20//20 19//19
f 24//24 26//26 23//23
f 26//26 31//31 23//23
f 31//31 28//28 23//23
f 25//25 27//27 24//24
f 27//27 26//26 24//24
f 30//30 27//27 25//25
f 27//27 31//31 26//26
f 30//30 32//32 27//27
f 32//32 31//31 27//27
f 31//31 29//29 28//28
f 31//31 32//32 29//29
f 32//32 30//30 29//29
f 36//36 38//38 33//33
f 34//34 36//36 33//33
f 35//35 37//37 34//34
f 37//37 36//36 34//34
f 39//39 37//37 35//35
f 43//43 38//38 36//36
f 37//37 44//44 36//36
f 44//44 43//43 36//36
f 39//39 44//44 37//37
f 43//43 40//40 38//38
f 42//42 44//44 39//39
f 43//43 41//41 40//40
f 43//43 44//44 41//41
f 44//44 42//42 41//41
f 46//46 48//48 45//45
f 48//48 53//53 45//45
f 53//53 50//50 45//45
f 47//47 49//49 46//46
f 49//49 48//48 46//46
f 52//52 49//49 47//47
f 49//49 53//53 48//48
f 52//52 54//54 49//49
f 54//54 53//53 49//49
f 53//53 51//51 50//50
f 53//53 54//54 51//51
f 54//54 52//52 51//51
f 58//58 60//60 55//55
f 56//56 58//58 55//55
f 57//57 59//59 56//56
f 59//59 58//58 56//56
f 61//61 59//59 57//57
f 65//65 60//60 58//58
f 59//59 66//66 58//58
f 66//66 65//65 58//58
f 61//61 66//66 59//59
f 65//65 62//62 60//60
f 64//64 66//66 61//61
f 65//65 63//63 62//62
f 65//65 66//66 63//63
f 66//66 64//64 63//63
f 68//68 70//70 67//67
f 70//70 75//75 67//67
f 75//75 72//72 67//67
f 69//69 71//71 68//68
f 71//71 70//70 68//68
f 74//74 71//71 69//69
f 71//71 75//75 70//70
f 74//74 76//76 71//71
f 76//76 75//75 71//71
f 75//75 73//73 72//72
f 75//75 76//76 73//73
f 76//76 74//74 73//73
f 80//80 82//82 77//77
f 78//78 80//80 77//77
f 79//79 81//81 78//78
f 81//81 80//80 78//78
f 83//83 81//81 79//79
f 87//87 82//82 80//80
f 81//81 88//88 80//80
f 88//88 87//87 80//80
f 83//83 88//88 81//81
f 87//87 84//84 82//82
f 86//86 88//88 83//83
f 87//87 85//85 84//84
f 87//87 88//88 85//85
f 88//88 86//86 85//85
f 90//90 92//92 89//89
f 92//92 97//97 89//89
f 97//97 94//94 89//89
f 91//91 93//93 90//90
f 93//93 92//92 90//90
f 96//96 93//93 91//91
f 93//93 97//97 92//92
f 96//96 98//98 93//93
f 98//98 97//97 93//93
f 97//97 95//95 94//94
f 97//97 98//98 95//95
f 98//98 96//96 95//95
f 102//102 104//104 99//99
f 100//100 102//102 99//99
f 101//101 103//103 100//100
f 103//103 102//102 100//100
f 105//105 103//103 101//101
f 109//109 104//104 102//102
f 103//103 110//110 102//102
f 110//110 109//109 102//102
f 105//105 110//110 103//103
f 109//109 106//106 104//104
f 108//108 110//110 105//105
f 109//109 107//107 106//106
f 109//109 110//110 107//107
f 110//110 108//108 107//107
f 112//112 114//114 111//111
f 114//114 119//119 111//111
f 119//119 116//116 111//111
f 113//113 115//115 112//112
f 115//115 114//114 112//112
f 118//118 115//115 113//113
f 115//115 119//119 114//114
f 118//118 120//120 115//115
f 120//120 119//119 115//115
f 119//119 117//117 116//116
f 119//119 120//120 117//117
f 120//120 118//118 117//117
f 124//124 126//126 121//121
f 122//122 124//124 121//121
f 123//123 125//125 122//122
f 125//125 124//124 122//122
f 127//127 125//125 123//123
f 131//131 126//126 124//124
f 125//125 132//132 124//124
f 132//132 131//131 124//124
f 127//127 132//132 125//125
f 131//131 128//128 126//126
f 130//130 132//132 127//127
f 131//131 129//129 128//128
f 131//131 132//132 129//129
f 132//132 130//130 129//129