mtllib material.mtl
usemtl material_0
v 0.13226530 0.01240000 0.00171160
v 0.13158840 0.01240000 0.00103470
v 0.13317920 0.01240000 0.00199640
v 0.13130360 0.01240000 0.00012080
v 0.13412080 0.01240000 0.00182380
v 0.13147610 0.01240000 -0.00082080
v 0.13487430 0.01240000 0.00123340
v 0.13206650 0.01240000 -0.00157440
v 0.13526720 0.01240000 0.00036050
v 0.13293940 0.01240000 -0.00196720
v 0.13520940 0.01240000 -0.00059500
v 0.13389500 0.01240000 -0.00190940
v 0.13471420 0.01240000 -0.00141420
v 0.13226530 0.01660000 0.00171160
v 0.13158840 0.01660000 0.00103470
v 0.13317920 0.01660000 0.00199640
v 0.13130360 0.01660000 0.00012080
v 0.13412080 0.01660000 0.00182380
v 0.13147610 0.01660000 -0.00082080
v 0.13487430 0.01660000 0.00123340
v 0.13206650 0.01660000 -0.00157440
v 0.13526720 0.01660000 0.00036050
v 0.13293940 0.01660000 -0.00196720
v 0.13520940 0.01660000 -0.00059500
v 0.13389500 0.01660000 -0.00190940
v 0.13471420 0.01660000 -0.00141420
vn 0.33309110 -0.76514510 -0.55100210
vn 0.55099990 -0.76514700 -0.33309060
vn 0.03887520 -0.76514580 -0.64268250
vn 0.64268360 -0.76514480 -0.03887450
vn -0.26424790 -0.76514610 -0.58713250
vn 0.58713320 -0.76514610 0.26424630
vn -0.50683430 -0.76514490 -0.39707960
vn 0.39707790 -0.76514610 0.50683400
vn -0.63330970 -0.76514660 -0.11605830
vn 0.11605760 -0.76514550 0.63331120
vn -0.61470480 -0.76514480 0.19155000
vn -0.19154980 -0.76514560 0.61470400
vn -0.45527650 -0.76514590 0.45527480
vn 0.47301270 0.40498530 -0.78246150
vn 0.78246120 0.40498410 -0.47301430
vn 0.05520580 0.40498500 -0.91265520
vn 0.91265510 0.40498550 -0.05520440
vn -0.37525190 0.40498410 -0.83377090
vn 0.83377160 0.40498550 0.37524890
vn -0.71973770 0.40498830 -0.56388130
vn 0.56388030 0.40498390 0.71974100
vn -0.89934560 0.40498760 -0.16481070
vn 0.16481030 0.40498500 0.89934690
vn -0.87292160 0.40498980 0.27201310
vn -0.27201440 0.40498530 0.87292340
vn -0.64652420 0.40498650 0.64652340
f 2//2 15//15 1//1
f 15//15 14//14 1//1
f 14//14 3//3 1//1
f 4//4 17//17 2//2
f 17//17 15//15 2//2
f 14//14 16//16 3//3
f 16//16 5//5 3//3
f 6//6 19//19 4//4
f 19//19 17//17 4//4
f 16//16 18//18 5//5
f 18//18 7//7 5//5
f 8//8 21//21 6//6
f 21//21 19//19 6//6
f 18//18 20//20 7//7
f 20//20 9//9 7//7
f 10//10 23//23 8//8
f 23//23 21//21 8//8
f 20//20 22//22 9//9
f 22//22 11//11 9//9
f 12//12 25//25 10//10
f 25//25 23//23 10//10
f 22//22 24//24 11//11
f 24//24 13//13 11//11
f 13//13 26//26 12//12
f 26//26 25//25 12//12
f 24//24 26//26 13//13